<svg xmlns="http://www.w3.org/2000/svg" version="1.1" xmlns:xlink="http://www.w3.org/1999/xlink" xmlns:svgjs="http://svgjs.dev/svgjs" width="1500" height="1500" viewBox="0 0 1500 1500"><rect width="1500" height="1500" fill="#ffffff"></rect><g transform="matrix(0.6666666666666666,0,0,0.6666666666666666,250,187.66666666666674)"><svg viewBox="0 0 320 360" data-background-color="#102e44" preserveAspectRatio="xMidYMid meet" height="1687" width="1500" xmlns="http://www.w3.org/2000/svg" xmlns:xlink="http://www.w3.org/1999/xlink"><g id="tight-bounds" transform="matrix(1,0,0,1,0,0)"><svg viewBox="0 0 320 360" height="360" width="320"><g><svg></svg></g><g><svg viewBox="0 0 320 360" height="360" width="320"><g><path d="M165.217 303.356c-1.404-1.755-2.809-0.702-2.808-1.755-8.426 2.106-24.223-3.511-30.894-2.809 1.404-2.106-2.106-1.755-2.106-3.159-1.404 2.106-2.809 0-4.915 0.702-2.106-5.266-10.532-1.404-11.585-8.075-4.915 0-6.67-2.809-11.586-5.617 0.351-0.351 0.702-0.351 1.054-0.702-2.457-0.351-2.457-1.755-4.564-1.755l0.702-1.405c-3.862-0.702-5.266-6.67-10.883-8.776-1.755-0.351-5.617-6.319-7.723-7.724-1.053-0.702-2.809-0.702-0.352-1.053-0.351-0.351-0.351-1.053 0-1.404-2.457-0.702-2.809-2.809-5.968-3.862-0.351-1.053 0.702-1.755 0-2.457-0.702-0.351-1.755 0.351-2.457 0-0.351 6.319 6.67 7.021 8.777 12.287-0.702-0.702-1.755-2.809-2.458-1.404-0.351 1.053 2.809 4.915 2.809 2.808-1.053 0.702-1.404-1.053-0.703-1.404 1.053 1.755 3.16 1.404 3.16 2.809-1.053 1.053-2.457-1.053-2.106 0.702 3.16 1.755 2.809 3.511 4.563 5.968-1.404-1.755-1.755 1.404-3.159 0-0.351-5.266-6.319-4.213-6.319-9.479-0.702-1.755-1.404-0.351-2.458-1.053 1.404-1.404-4.213-6.319-4.213-4.564-1.755-2.106-0.702-2.809-1.053-4.213-1.404-0.351-0.351 1.404-1.404 0.351 1.404-2.457-1.755-5.617-3.862-8.074l1.405-0.702c-2.457-1.404-2.809-4.213-4.564-7.373-2.106 3.16 4.213 10.181 3.159 11.585 0 0.351 2.457 3.16 3.16 4.564 2.809 4.915 4.915 10.883 8.777 13.692-0.702-0.351-0.351-2.457 0.702-1.404 0 1.053-0.702 2.106-0.702 3.159 2.106 2.106 3.862 3.862 5.968 5.968-4.564-2.809-9.128-5.617-12.288-9.83 1.755-0.351 3.511 2.809 4.915 2.458-3.511-2.809-2.457-3.862-3.861-7.372-1.404-1.053 0.351 1.404-1.054 1.755-4.564-4.213-8.075-6.67-10.181-10.532 0.351-0.351 0.702-0.702 0.703-1.404-0.351-0.351-0.351-0.351-0.703-0.702 2.106 2.106 2.809 3.862 5.266 4.212-1.053-1.053 0-1.404-1.404-2.457-0.702-1.404-1.755 0.702-2.457-0.351 0.702-1.053 0-2.457 0-3.511-0.702 0-1.404 0-1.756-1.053-0.702-0.351-1.053 0-1.404 0.702-0.351-0.351-0.351-1.053-0.702-1.404v-0.351c-0.351-0.351-0.702-1.053-1.053-1.405-2.809-7.372-4.564-17.202-8.426-23.521 1.053-4.213-0.702-12.638-1.755-14.745 1.053-1.755 0.351-9.83-0.351-11.234-1.755 0.702 0.351 4.564-1.404 5.617-1.755-7.723 1.053-16.5 0.351-23.521 0.702 0 1.404 0 1.404-0.351-1.053-1.053 0.702-3.16 0.351-5.617 1.404-3.16-3.16 4.564-3.16 7.723-0.351 0.702-1.755 0-1.404 1.756 0 2.457 0.702 7.372-0.702 10.883-0.702 0-0.702-0.702-1.404-0.351-0.351 1.755-0.702 3.862-1.053 5.617-0.351-0.702-0.702-1.755-0.703-2.107-1.755-8.777 0-18.958-0.702-26.33 1.404 0 1.404-2.106 2.458-2.808-0.351 2.809-1.053 6.319 0.702 7.021 1.404-13.692 4.213-28.787 10.532-43.532 4.564-10.883 11.234-21.766 19.308-30.543 0.702 1.053-0.351 3.511 0 4.564 7.021-7.372 11.585-16.149 19.309-21.064 0.351 1.755-3.16 3.16-3.16 4.564 3.16-3.16 4.213-2.106 7.724-3.159 1.053-1.404-1.404 0-1.756-1.405 2.106-1.404 3.511-3.16 4.915-4.212 0 0.351-0.351 0.351-0.351 0.702 3.862-1.053 4.213-3.16 7.022-3.862-0.351-0.351-1.053-0.702-2.107-0.351 0.702-0.351 1.755-1.053 2.809-1.404-0.351 0-0.351 0.351-0.702 0.351 2.106-1.053 0.351 0.351 0.351 1.053 0.351 0 0.702-0.351 0.702-0.351-2.106 1.404-3.511 2.106-4.213 4.564 1.053-0.702 1.404 0 2.809-1.054 1.404-0.702-0.351-1.755 0.702-2.457 1.053 0.702 2.457 0.351 3.51 0.351 0-0.702 0.351-1.404 1.054-1.755 0.351-0.702 0-1.053-0.352-1.053 0.351-0.351 0.702-0.351 1.405-0.703 0 0 0.351 0 0.351 0.351 5.968-2.809 12.638-5.266 18.957-7.372 3.862-0.351 8.777-0.351 10.883-2.808-0.702 0-1.404 0.351-1.755 0 0.351 0 1.053-0.351 1.404-0.351 0.702 0.702 1.755 0 0.702 1.404 0.351 0 0.351 0 0.703-0.351 0 0.351 0 0.351 0.351 0.702 0.351 0 0.702-0.351 1.053-1.053 0.351 0 0.702 0 1.053-0.351l-0.351 0.351c2.809-0.702 5.266-0.351 9.128-1.054 0-0.351 0-0.702 0-1.053 0.702 0 1.053-0.351 1.755-0.351v0.351c1.404-0.702 2.809 0.702 2.808 0 0.351 0 0.351 0 0.703 0 0 0.702-0.351 1.053-0.351 1.405 1.755 0 2.809 0 3.51-1.054-0.351-0.351-0.702-0.351-1.053-0.351 0.702 0 1.404-0.351 2.106-0.702 1.053 0.351 1.404 0.702 1.405 2.107 1.755-3.16 7.372 0.702 9.829 0 1.053 0 0.702-1.404 1.405-2.107 0.351 0 0.702 0 1.053 0 1.755 1.404 4.213 2.809 7.372 3.16-2.809-0.702 0.351-1.053 0.702-1.405-0.702 0-0.702-0.351-0.702-0.702 1.053 0 2.106 0.351 3.16 0.351 0 0.702 0.351 1.053 1.053 1.054 0.702 0 0.702-0.351 0.702-1.054 1.053 0 1.755 0 2.809 0.351-0.351 1.404 1.755 1.755 2.457 2.809-2.809-0.702-5.968-1.755-7.021 0 11.234 2.457 23.521 5.968 35.457 11.936 0 0 0 0 0 0.351h0.352c2.106 1.053 4.213 2.106 6.319 3.16 1.404 0.702 2.457 1.404 3.861 2.457 0 0.351 0 0.702 0.703 0.702h0.351c1.404 1.053 2.809 1.755 4.212 2.809 1.404 2.106 2.809 4.915 5.266 4.213 5.266 8.075 10.883 11.234 15.447 19.659 0.351-1.404 1.404 3.16 3.16 3.511-2.809-0.351 1.755 1.755-1.053 1.404 2.457 2.457 3.16 3.511 3.51 6.319-0.702-1.404-1.053-1.755-1.404-0.351-0.351 2.106 2.457-0.351 3.511 1.756-2.106 0-1.404 1.404-1.054 3.159 1.053-1.053 0.702-2.106 1.756-1.755 1.404 1.404-0.702 1.755-0.351 2.809 1.053-1.404 1.404-0.702 2.808 0-1.755 0.351 1.053 2.809-1.053 1.755 1.404 1.755 1.755 2.809 1.053 4.564-1.404-2.106-0.351-3.511-2.457-3.16 4.213 3.511 2.106 11.585 7.021 12.287-3.16 0.702 0 2.106-1.755 2.458 2.106 0.702 1.053 3.511 3.51 4.213-0.351 1.755-1.053 2.809-1.404 4.563 1.053 1.404 1.404 4.213 3.16 4.564-1.053 1.053-0.351 3.862-1.404 4.915 1.404-0.702 2.106-0.702 3.159 0.702-1.755 1.404-0.351 2.809-1.404 3.16 3.16 8.075-0.702 24.575 1.053 30.894-2.106-1.053-1.404 2.457-2.808 2.457 2.457 1.053 0.351 2.809 1.404 4.564-4.915 2.809 0 10.532-6.67 12.287 0.702 4.915-2.106 7.021-4.213 12.288-0.351-0.351-0.351-0.702-0.702-1.054-0.351 2.457-1.755 2.809-1.054 4.915l-1.404-0.702c0 3.862-5.968 5.968-7.372 11.936-0.351 1.755-5.617 6.319-7.022 8.777-0.702 1.053-0.351 2.809-1.053 0.351-0.351 0.351-1.053 0.351-1.404 0.351-0.351 2.457-2.457 3.16-3.16 6.319-0.702 0.351-1.755-0.702-2.457 0.351 0 0.702 0.702 1.755 0.351 2.458 6.319-0.351 6.319-7.723 11.234-10.181-0.351 1.053-2.457 2.106-1.053 2.808 1.053 0 4.213-3.511 2.457-3.159 1.053 0.702-1.053 1.404-1.404 1.053 1.755-1.404 1.053-3.16 2.458-3.511 1.053 0.702-1.053 2.457 1.053 2.107 1.404-3.16 3.16-3.511 5.266-5.266-1.404 1.404 1.755 1.755 0.351 3.159-5.266 1.053-3.511 7.021-8.777 7.724-1.404 1.053-0.351 1.404-0.702 2.457-1.755-1.053-5.617 4.915-4.213 4.564-1.755 1.755-2.809 1.053-4.212 1.404-0.351 1.404 1.404 0.351 0.702 1.405-2.457-1.053-5.617 2.457-7.724 4.915l-1.053-1.054c-1.053 2.809-3.862 3.16-7.021 5.266 3.511 1.755 9.479-5.617 11.234-4.564 0.351 0 3.16-2.809 4.213-3.861 4.564-3.511 10.181-6.319 12.287-10.181-0.351 0.702-2.457 0.702-1.404-0.351 1.053-0.351 2.106 0.351 3.159 0.351 5.617-7.723 12.638-14.043 17.905-23.17 0.351-0.351 0.702-1.053 1.053-1.756-0.702 2.106-1.755 3.862-2.458 5.968-5.617 3.862-7.723 15.096-14.393 16.851 0.351 3.862-3.16 4.915-4.915 9.479-1.053 1.404-1.755-1.053-2.809 0.702 1.053 4.915-8.777 4.564-8.425 9.128-0.702 0.351-1.755 0.702-2.458 1.404h-0.351c-0.351 0.351-0.351 0.351-0.702 0.702-1.755 1.053-3.16 2.106-4.564 3.16-4.915 2.809-11.585 4.915-16.851 7.723v-0.351c-1.404 0.702-3.16 0.351-2.809 1.756-1.053 0.702-2.106 1.404-3.159 2.106-0.351 0-0.351 0-0.702 0 0 0-0.351-0.351-0.702-0.351-0.702 0-0.702 0-1.054 0.351-4.564 0.351-10.532 2.457-12.287 3.862-1.755-1.053-9.83 0.702-11.234 1.404 0.702 1.053 2.809 0 4.564 0-1.053 0.351-2.106 0.702-2.458 1.404-0.351 0-0.351 0-0.702 0-0.351-1.053-1.404 0-1.755-0.351h0.351c-0.351-1.404-1.404-2.106-3.16-1.755 0 0.702 0 1.053-0.351 1.755 0.702 0 2.809-1.053 2.809 0-0.351 0-0.351 0.351 0 0.351-0.702 0.702-1.755 0.702-2.458 1.054-1.404 0-3.16 0-4.563 0-0.351-0.351-0.702-0.351-1.405-0.703-0.351 0.351-1.053 0.351-1.404 0.703-2.106 0-4.564 0.351-6.319 0.702 0-0.702 0-1.404-0.702-1.405-1.053 1.404-3.16-0.351-5.617 0.352-2.457-0.702 1.404 1.053 4.915 1.755-0.351 0.351-0.702 0.702-1.756 1.053M116.068 308.271c-4.915-4.564-15.096-6.67-16.851-10.181-2.809-0.351-7.021-5.617-10.532-6.319 1.755 0 0.351-1.053 0-1.755-0.702 0.702-1.404 1.053-2.106 1.053 0-2.809-2.809-4.564-5.266-6.319 1.755 1.053 3.16 1.755 5.266 2.106 0-0.702 0-1.404 0.702-1.404 2.457 2.457 5.266 4.915 8.425 7.372 4.213 3.862 25.979 13.692 29.841 15.447 0 0-0.702 1.404-0.351 1.404 1.755 1.053 3.16-1.053 3.511 1.404-5.617 0.702-7.723-3.16-12.639-2.808M277.909 226.824v0.351 0c-0.351 0 0-0.351 0-0.351M136.079 64.281c-0.351 0.351-0.702 0.351-0.702 0.351 0-0.351 0.351-0.351 0.702-0.351M129.409 66.036c0 0.351 0 0.351 0 0 0 0.351 0 0.351 0 0 0 0.351 0 0 0 0M106.238 73.408v0c0.351-0.351 0.351-0.351 0.703-0.351-0.351 0-0.702 0.351-0.703 0.351M162.409 61.823c-0.702 0-1.053 0-1.404-0.351 0.351 0 0.702 0 1.053 0h0.351c0 0 0 0 0 0.351M168.728 62.525c-0.351-0.351-1.404-0.702-2.457-0.702 0-0.351 0.351-0.702 0.351-0.702 0.351 0 0.702 0 1.053 0 0 0 0.351 0 0.351 0.351 0 0 0 0 0-0.351 0.351 0 0.351 0 0.702 0 0.351 0.702 0.702 1.053 0 1.404M180.313 63.579c-1.755 0.351-2.809-0.351-4.564-1.405 1.053 0 2.457 0.351 3.511 0.702 0.351 0 0.702 0.351 1.053 0.703M305.292 113.43c-0.702 0.351-1.053 0.351-1.755-1.053-5.617-11.936-15.798-29.138-30.543-43.532-14.394-14.745-33.702-26.681-51.255-33.001 1.053 0.351 2.457 1.053 1.755 1.756-15.447-5.968-30.192-9.479-44.234-10.883-37.915-5.968-77.585 2.106-108.128 21.766 0.351 0.702 0.351 1.053-0.702 1.755-11.234 7.021-27.032 19.309-39.671 35.458-12.638 16.149-22.468 36.511-26.681 54.766 0.351-1.053 0.702-2.809 1.405-2.107-9.128 36.16-6.67 67.053 5.968 93.735 0.702-0.702-1.755-4.213 0.351-3.862 1.404 3.862 3.16 8.075 5.266 11.936 2.457 5.617 5.266 12.989 9.128 14.745-9.83-19.309-16.5-41.426-17.203-61.085 1.404 2.809 1.053 8.777 3.16 11.234 0.702-13.34-2.457-31.245 2.106-43.883-1.053 6.67-1.755 15.798-1.053 24.925 0 6.67 3.16 25.277 5.266 27.032-0.351-0.351-0.351-2.106 0-2.106 1.053 2.106-1.404 3.16 0.351 3.511 0-0.702 0.351-0.702 0.702-0.703 3.511 7.723 8.075 19.66 11.585 25.628 4.213 7.723 9.83 14.745 16.149 21.064 0 0.351 0.351 0.351 0.352 0.702 0.702 1.755 3.16 3.862 3.861 5.266 0.351 0.702-0.351 1.755 0 2.458 5.266 9.83 12.989 19.66 22.468 27.383 5.968 7.021 15.447 14.394 27.032 20.713 11.234 5.968 24.223 10.883 36.16 13.691 8.426 2.106 18.606 2.457 24.926 3.862 8.426 1.755 23.17-0.702 30.542-2.107 44.234-6.67 88.117-36.862 110.235-80.393 22.819-43.883 22.117-97.596 2.457-138.671" fill="#000000" fill-rule="nonzero" stroke="none" stroke-width="1" stroke-linecap="butt" stroke-linejoin="miter" stroke-miterlimit="10" stroke-dasharray="" stroke-dashoffset="0" font-family="none" font-weight="none" font-size="none" text-anchor="none" style="mix-blend-mode: normal" data-fill-palette-color="tertiary"></path></g><g transform="matrix(1,0,0,1,80,155.9331278014004)"><svg viewBox="0 0 160 48.13374439719922" height="48.13374439719922" width="160"><g><svg viewBox="0 0 160 48.13374439719922" height="48.13374439719922" width="160"><g><svg viewBox="0 0 160 48.13374439719922" height="48.13374439719922" width="160"><g><svg viewBox="0 0 160 48.13374439719922" height="48.13374439719922" width="160"><g id="textblocktransform"><svg viewBox="0 0 160 48.13374439719922" height="48.13374439719922" width="160" id="textblock"><g><svg viewBox="0 0 160 31.37827814070825" height="31.37827814070825" width="160"><g transform="matrix(1,0,0,1,0,0)"><svg width="160" viewBox="-2.95 -37.08 208.47 41.69" height="31.37827814070825" data-palette-color="#ffffff"><path d="M15.92-27L15.92 0.15Q14.75 0 9.89 0L9.89 0 9.11 0 9.11-27 4.27-27Q2.12-27 1.73-26.78 1.34-26.56 1.12-26.39L1.12-26.39 1.05-26.42 1.05-32.67 1.12-32.74Q1.93-32.47 5.47-32.47L5.47-32.47 20.78-32.47Q22.92-32.47 23.32-32.69 23.71-32.91 23.93-33.08L23.93-33.08 24-33.06 24-26.81 23.93-26.73Q23.12-27 19.58-27L19.58-27 15.92-27ZM26.78-12.62L26.78-12.62Q26.78-15.31 27.7-17.76 28.61-20.21 30.32-22.05L30.32-22.05Q34.06-26 40.01-26L40.01-26Q45.94-26 49.44-22.27L49.44-22.27Q52.78-18.7 52.78-13.01L52.78-13.01Q52.78-7.32 49.34-3.59L49.34-3.59Q45.7 0.37 39.69 0.37L39.69 0.37Q33.49 0.37 29.98-3.52L29.98-3.52Q26.78-7.06 26.78-12.62ZM32.71-12.77L32.71-12.77Q32.71-11.23 33.23-9.79 33.74-8.35 34.69-7.32L34.69-7.32Q36.72-5.1 40.01-5.1L40.01-5.1Q43.06-5.1 44.82-7.28L44.82-7.28Q46.53-9.38 46.53-12.74L46.53-12.74Q46.53-16.16 44.77-18.26L44.77-18.26Q42.89-20.51 39.62-20.51L39.62-20.51Q36.3-20.51 34.42-18.12L34.42-18.12Q32.71-15.92 32.71-12.77ZM66.38 0.61L66.38 0.61Q62.42 0.61 58.93-0.02L58.93-0.02 58.93-32.69Q62.15-33.08 66.41-33.08 70.67-33.08 74.13-31.92 77.58-30.76 79.9-28.61L79.9-28.61Q84.59-24.32 84.59-16.58L84.59-16.58Q84.59-7.91 79.37-3.42L79.37-3.42Q74.68 0.61 66.38 0.61ZM65.28-27.1L65.28-5.35Q66.87-5.05 68.45-5.05 70.04-5.05 71.87-5.68 73.7-6.3 75.04-7.62L75.04-7.62Q77.92-10.4 77.92-15.72L77.92-15.72Q77.92-24.46 71.55-26.46L71.55-26.46Q69.45-27.12 66.69-27.12L66.69-27.12 66.04-27.12Q65.67-27.12 65.28-27.1L65.28-27.1ZM89.3-12.62L89.3-12.62Q89.3-15.31 90.21-17.76 91.13-20.21 92.84-22.05L92.84-22.05Q96.57-26 102.53-26L102.53-26Q108.46-26 111.96-22.27L111.96-22.27Q115.3-18.7 115.3-13.01L115.3-13.01Q115.3-7.32 111.86-3.59L111.86-3.59Q108.22 0.37 102.21 0.37L102.21 0.37Q96.01 0.37 92.5-3.52L92.5-3.52Q89.3-7.06 89.3-12.62ZM95.23-12.77L95.23-12.77Q95.23-11.23 95.74-9.79 96.26-8.35 97.21-7.32L97.21-7.32Q99.24-5.1 102.53-5.1L102.53-5.1Q105.58-5.1 107.34-7.28L107.34-7.28Q109.05-9.38 109.05-12.74L109.05-12.74Q109.05-16.16 107.29-18.26L107.29-18.26Q105.41-20.51 102.14-20.51L102.14-20.51Q98.82-20.51 96.94-18.12L96.94-18.12Q95.23-15.92 95.23-12.77ZM120.28-29.54L120.28-30.27Q120.28-31.08 120.2-32.47L120.2-32.47 143.35-32.47 129.14-5.86 138-5.86Q141.47-5.86 142.09-6.07 142.71-6.27 143.08-6.45L143.08-6.45 143.08 0.37Q142.03 0.27 141.35 0.2 140.66 0.12 139.91 0.07L139.91 0.07Q138.76 0 135.46 0L135.46 0 119.03 0 133.73-26.61 126.04-26.61Q121.28-26.61 119.99-26.1L119.99-26.1Q120.28-27.32 120.28-29.54L120.28-29.54ZM148.18-12.55L148.18-12.55Q148.18-15.41 149.16-17.85 150.13-20.29 151.92-22.12L151.92-22.12Q155.72-26 161.88-26L161.88-26Q167.08-26 170.23-22.56L170.23-22.56Q173.33-19.24 173.33-14.21L173.33-14.21Q173.33-12.28 173.03-11.57L173.03-11.57Q170.59-10.89 163.1-10.89L163.1-10.89 154.5-10.89Q155.14-8.28 157.46-6.82 159.78-5.37 163.49-5.37L163.49-5.37Q167.37-5.37 170.15-6.76L170.15-6.76Q170.89-7.13 171.25-7.45L171.25-7.45Q171.2-6.42 171.13-5.35L171.13-5.35 170.86-1.54Q169.01-0.27 164.86 0.22L164.86 0.22Q163.63 0.37 162.51 0.37L162.51 0.37Q156.31 0.37 152.26-3.25L152.26-3.25Q148.18-6.88 148.18-12.55ZM166.83-15.63L166.83-15.63Q165.83-20.87 161.12-20.87L161.12-20.87Q157.41-20.87 155.48-17.68L155.48-17.68Q154.89-16.7 154.58-15.53L154.58-15.53Q155.16-15.5 156.02-15.48L156.02-15.48 157.82-15.48Q158.73-15.45 159.56-15.45L159.56-15.45 160.95-15.45Q162.19-15.45 163.39-15.48L163.39-15.48 165.39-15.55Q166.2-15.58 166.83-15.63ZM185.04-17.07L185.04-3.13Q185.04-0.98 185.24 0L185.24 0 179.11 0 179.11-25.51 185.04-25.51 185.04-23.34Q188.27-26 191.93-26L191.93-26Q195.93-26 198.32-23.28 200.72-20.56 200.72-16.11L200.72-16.11 200.72-6.4Q200.72-2.27 200.84-1.44 200.96-0.61 201.17-0.37 201.38-0.12 201.52 0.07L201.52 0.07 201.47 0.17Q199.5 0 198.59 0L198.59 0 196.88 0Q196.1 0 194.78 0.07L194.78 0.07 194.78-13.23Q194.78-20.39 190.44-20.39L190.44-20.39Q187.22-20.39 185.04-17.07L185.04-17.07Z" opacity="1" transform="matrix(1,0,0,1,0,0)" fill="#000000" class="wordmark-text-0" data-fill-palette-color="primary" id="text-0"></path></svg></g></svg></g><g transform="matrix(1,0,0,1,3.5,37.51162302087844)"><svg viewBox="0 0 153 10.62212137632078" height="10.62212137632078" width="153"><g transform="matrix(1,0,0,1,0,0)"><svg width="153" viewBox="-0.8999999999999999 -39.25 739.13 52.25" height="10.62212137632078" data-palette-color="#ffffff"><path d="M6.9-21.4L4.2-21.4 3.1-35.25 7.9-35.25 6.9-21.4ZM16.9-21.4L14.2-21.4 13.1-35.25 17.9-35.25 16.9-21.4ZM42.15-9.7L55.35-35.25 58.7-35.25 58.7 0 54.95 0 55-27.3 43.55-5.6 40.65-5.6 29.15-27.1 29.2 0 25.4 0 25.4-35.25 28.8-35.25 42.15-9.7ZM76.75-24.95Q81.4-24.95 83.67-22.58 85.95-20.2 85.95-15.35L85.95-15.35 85.95 0 82 0 82-4.15Q81.05-2 79.09-0.83 77.15 0.35 74.59 0.35L74.59 0.35Q72.25 0.35 70.27-0.6 68.3-1.55 67.15-3.25 66-4.95 66-7L66-7Q66-9.75 67.4-11.28 68.8-12.8 72-13.48 75.2-14.15 80.9-14.15L80.9-14.15 82-14.15 82-15.8Q82-18.85 80.75-20.23 79.5-21.6 76.7-21.6L76.7-21.6Q72.5-21.6 68.34-19L68.34-19 67-21.95Q68.9-23.3 71.57-24.13 74.25-24.95 76.75-24.95L76.75-24.95ZM75.15-2.85Q78.15-2.85 80.07-4.88 82-6.9 82-10.1L82-10.1 82-11.55 81.09-11.55Q76.7-11.55 74.4-11.18 72.09-10.8 71.12-9.93 70.15-9.05 70.15-7.35L70.15-7.35Q70.15-5.4 71.57-4.13 73-2.85 75.15-2.85L75.15-2.85ZM101.59 0.35Q95.44 0.35 91.84-2.8L91.84-2.8 93.19-5.8Q95.14-4.25 97.17-3.58 99.19-2.9 101.74-2.9L101.74-2.9Q104.44-2.9 105.87-3.83 107.29-4.75 107.29-6.5L107.29-6.5Q107.29-7.95 106.34-8.8 105.39-9.65 103.19-10.15L103.19-10.15 99.09-11.1Q95.99-11.8 94.34-13.5 92.69-15.2 92.69-17.7L92.69-17.7Q92.69-20.95 95.24-22.95 97.79-24.95 102.04-24.95L102.04-24.95Q104.59-24.95 106.89-24.13 109.19-23.3 110.74-21.75L110.74-21.75 109.39-18.8Q106.04-21.65 102.04-21.65L102.04-21.65Q99.49-21.65 98.07-20.68 96.64-19.7 96.64-17.95L96.64-17.95Q96.64-16.5 97.52-15.63 98.39-14.75 100.34-14.3L100.34-14.3 104.49-13.3Q107.89-12.5 109.54-10.88 111.19-9.25 111.19-6.65L111.19-6.65Q111.19-3.45 108.62-1.55 106.04 0.35 101.59 0.35L101.59 0.35ZM127.79-2.9Q128.89-2.9 129.99-3.05L129.99-3.05 129.79 0.15Q128.64 0.35 127.29 0.35L127.29 0.35Q122.89 0.35 120.67-1.95 118.44-4.25 118.44-8.35L118.44-8.35 118.44-21.15 113.69-21.15 113.69-24.35 118.44-24.35 118.44-31.75 122.49-31.75 122.49-24.35 129.39-24.35 129.39-21.15 122.49-21.15 122.49-8.65Q122.49-2.9 127.79-2.9L127.79-2.9ZM154.49-13.05L154.49-11.55 136.69-11.55Q136.89-7.3 138.99-5.13 141.09-2.95 144.94-2.95L144.94-2.95Q149.19-2.95 152.74-5.85L152.74-5.85 154.09-2.9Q152.49-1.4 149.99-0.53 147.49 0.35 144.89 0.35L144.89 0.35Q139.19 0.35 135.91-3 132.64-6.35 132.64-12.25L132.64-12.25Q132.64-16 134.09-18.88 135.54-21.75 138.16-23.35 140.79-24.95 144.14-24.95L144.14-24.95Q148.99-24.95 151.74-21.78 154.49-18.6 154.49-13.05L154.49-13.05ZM144.19-21.8Q140.99-21.8 139.06-19.8 137.14-17.8 136.79-14.15L136.79-14.15 150.94-14.15Q150.84-17.85 149.09-19.83 147.34-21.8 144.19-21.8L144.19-21.8ZM173.88-24.95L174.24-21.45 171.59-21.2Q167.84-20.85 166.16-18.85 164.49-16.85 164.49-13.9L164.49-13.9 164.49 0 160.44 0 160.44-24.35 164.38-24.35 164.38-20.1Q166.44-24.35 172.44-24.85L172.44-24.85 173.88-24.95ZM213.48-35.25L218.13-35.25 204.28-16.65 204.28 0 200.18 0 200.18-16.7 186.33-35.25 191.08-35.25 202.28-20.05 213.48-35.25ZM227.33 0.35Q223.88 0.35 221.25-1.2 218.63-2.75 217.2-5.63 215.78-8.5 215.78-12.3L215.78-12.3Q215.78-16.1 217.2-18.98 218.63-21.85 221.25-23.4 223.88-24.95 227.33-24.95L227.33-24.95Q230.78-24.95 233.43-23.4 236.08-21.85 237.5-18.98 238.93-16.1 238.93-12.3L238.93-12.3Q238.93-8.5 237.5-5.63 236.08-2.75 233.43-1.2 230.78 0.35 227.33 0.35L227.33 0.35ZM227.33-3Q230.93-3 232.85-5.38 234.78-7.75 234.78-12.3L234.78-12.3Q234.78-16.75 232.83-19.18 230.88-21.6 227.33-21.6L227.33-21.6Q223.78-21.6 221.83-19.18 219.88-16.75 219.88-12.3L219.88-12.3Q219.88-7.8 221.8-5.4 223.73-3 227.33-3L227.33-3ZM261.43-24.35L265.48-24.35 265.48 0 261.53 0 261.53-4.15Q260.38-1.95 258.3-0.8 256.23 0.35 253.63 0.35L253.63 0.35Q249.28 0.35 247.08-2.08 244.88-4.5 244.88-9.25L244.88-9.25 244.88-24.35 248.93-24.35 248.93-9.35Q248.93-6.1 250.23-4.58 251.53-3.05 254.33-3.05L254.33-3.05Q257.53-3.05 259.48-5.13 261.43-7.2 261.43-10.6L261.43-10.6 261.43-24.35ZM286.47-24.95L286.82-21.45 284.17-21.2Q280.42-20.85 278.75-18.85 277.07-16.85 277.07-13.9L277.07-13.9 277.07 0 273.02 0 273.02-24.35 276.97-24.35 276.97-20.1Q279.02-24.35 285.02-24.85L285.02-24.85 286.47-24.95ZM304.17 0L304.17-35.25 316.02-35.25Q324.47-35.25 329.09-30.68 333.72-26.1 333.72-17.65L333.72-17.65Q333.72-9.2 329.09-4.6 324.47 0 316.02 0L316.02 0 304.17 0ZM308.27-3.5L315.77-3.5Q329.47-3.5 329.47-17.65L329.47-17.65Q329.47-31.75 315.77-31.75L315.77-31.75 308.27-31.75 308.27-3.5ZM350.41-24.95Q355.06-24.95 357.34-22.58 359.62-20.2 359.62-15.35L359.62-15.35 359.62 0 355.66 0 355.66-4.15Q354.71-2 352.76-0.83 350.81 0.35 348.26 0.35L348.26 0.35Q345.91 0.35 343.94-0.6 341.96-1.55 340.81-3.25 339.66-4.95 339.66-7L339.66-7Q339.66-9.75 341.06-11.28 342.46-12.8 345.66-13.48 348.87-14.15 354.56-14.15L354.56-14.15 355.66-14.15 355.66-15.8Q355.66-18.85 354.41-20.23 353.16-21.6 350.37-21.6L350.37-21.6Q346.16-21.6 342.01-19L342.01-19 340.66-21.95Q342.56-23.3 345.24-24.13 347.91-24.95 350.41-24.95L350.41-24.95ZM348.81-2.85Q351.81-2.85 353.74-4.88 355.66-6.9 355.66-10.1L355.66-10.1 355.66-11.55 354.76-11.55Q350.37-11.55 348.06-11.18 345.76-10.8 344.79-9.93 343.81-9.05 343.81-7.35L343.81-7.35Q343.81-5.4 345.24-4.13 346.66-2.85 348.81-2.85L348.81-2.85ZM376.21-4.4L384.46-24.3 388.51-24.3 374.11 9 369.96 9 374.06-0.3 363.76-24.3 368.06-24.3 376.21-4.4ZM431.71-4.8L438.66-24.35 442.71-24.35 433.66 0 429.76 0 422.91-18.85 416.01 0 412.16 0 403.11-24.35 407.31-24.35 414.21-4.8 421.26-24.35 424.76-24.35 431.71-4.8ZM451.75 0L447.7 0 447.7-24.35 451.75-24.35 451.75 0ZM447.31-30.35L447.31-34.9 452.2-34.9 452.2-30.35 447.31-30.35ZM470-2.9Q471.1-2.9 472.2-3.05L472.2-3.05 472 0.15Q470.85 0.35 469.5 0.35L469.5 0.35Q465.1 0.35 462.88-1.95 460.65-4.25 460.65-8.35L460.65-8.35 460.65-21.15 455.9-21.15 455.9-24.35 460.65-24.35 460.65-31.75 464.7-31.75 464.7-24.35 471.6-24.35 471.6-21.15 464.7-21.15 464.7-8.65Q464.7-2.9 470-2.9L470-2.9ZM488.55-24.95Q497.3-24.95 497.3-15.3L497.3-15.3 497.3 0 493.25 0 493.25-15.05Q493.25-18.45 491.93-20 490.6-21.55 487.7-21.55L487.7-21.55Q484.35-21.55 482.35-19.5 480.35-17.45 480.35-13.95L480.35-13.95 480.35 0 476.3 0 476.3-35.25 480.35-35.25 480.35-20.45Q481.55-22.65 483.68-23.8 485.8-24.95 488.55-24.95L488.55-24.95ZM530.84 0L526.69 0 526.69-31.75 514.44-31.75 514.44-35.25 543.14-35.25 543.14-31.75 530.84-31.75 530.84 0ZM553.79 0.35Q550.34 0.35 547.72-1.2 545.09-2.75 543.67-5.63 542.24-8.5 542.24-12.3L542.24-12.3Q542.24-16.1 543.67-18.98 545.09-21.85 547.72-23.4 550.34-24.95 553.79-24.95L553.79-24.95Q557.24-24.95 559.89-23.4 562.54-21.85 563.97-18.98 565.39-16.1 565.39-12.3L565.39-12.3Q565.39-8.5 563.97-5.63 562.54-2.75 559.89-1.2 557.24 0.35 553.79 0.35L553.79 0.35ZM553.79-3Q557.39-3 559.32-5.38 561.24-7.75 561.24-12.3L561.24-12.3Q561.24-16.75 559.29-19.18 557.34-21.6 553.79-21.6L553.79-21.6Q550.24-21.6 548.29-19.18 546.34-16.75 546.34-12.3L546.34-12.3Q546.34-7.8 548.27-5.4 550.19-3 553.79-3L553.79-3ZM572.04 0L572.04-35.25 583.89-35.25Q592.34-35.25 596.96-30.68 601.59-26.1 601.59-17.65L601.59-17.65Q601.59-9.2 596.96-4.6 592.34 0 583.89 0L583.89 0 572.04 0ZM576.14-3.5L583.64-3.5Q597.34-3.5 597.34-17.65L597.34-17.65Q597.34-31.75 583.64-31.75L583.64-31.75 576.14-31.75 576.14-3.5ZM618.49 0.35Q615.04 0.35 612.41-1.2 609.79-2.75 608.36-5.63 606.94-8.5 606.94-12.3L606.94-12.3Q606.94-16.1 608.36-18.98 609.79-21.85 612.41-23.4 615.04-24.95 618.49-24.95L618.49-24.95Q621.94-24.95 624.59-23.4 627.24-21.85 628.66-18.98 630.09-16.1 630.09-12.3L630.09-12.3Q630.09-8.5 628.66-5.63 627.24-2.75 624.59-1.2 621.94 0.35 618.49 0.35L618.49 0.35ZM618.49-3Q622.09-3 624.01-5.38 625.94-7.75 625.94-12.3L625.94-12.3Q625.94-16.75 623.99-19.18 622.04-21.6 618.49-21.6L618.49-21.6Q614.94-21.6 612.99-19.18 611.04-16.75 611.04-12.3L611.04-12.3Q611.04-7.8 612.96-5.4 614.89-3 618.49-3L618.49-3ZM659.53-32.25L639.33-3.45 660.03-3.45 660.03 0 634.63 0 634.63-3.05 654.78-31.8 634.63-31.8 634.63-35.25 659.53-35.25 659.53-32.25ZM685.73-13.05L685.73-11.55 667.93-11.55Q668.13-7.3 670.23-5.13 672.33-2.95 676.18-2.95L676.18-2.95Q680.43-2.95 683.98-5.85L683.98-5.85 685.33-2.9Q683.73-1.4 681.23-0.53 678.73 0.35 676.13 0.35L676.13 0.35Q670.43 0.35 667.16-3 663.88-6.35 663.88-12.25L663.88-12.25Q663.88-16 665.33-18.88 666.78-21.75 669.41-23.35 672.03-24.95 675.38-24.95L675.38-24.95Q680.23-24.95 682.98-21.78 685.73-18.6 685.73-13.05L685.73-13.05ZM675.43-21.8Q672.23-21.8 670.31-19.8 668.38-17.8 668.03-14.15L668.03-14.15 682.18-14.15Q682.08-17.85 680.33-19.83 678.58-21.8 675.43-21.8L675.43-21.8ZM703.93-24.95Q712.68-24.95 712.68-15.3L712.68-15.3 712.68 0 708.63 0 708.63-15.05Q708.63-18.45 707.3-20 705.98-21.55 703.08-21.55L703.08-21.55Q699.73-21.55 697.73-19.5 695.73-17.45 695.73-13.95L695.73-13.95 695.73 0 691.68 0 691.68-24.35 695.68-24.35 695.68-20.35Q696.88-22.6 699.03-23.78 701.18-24.95 703.93-24.95L703.93-24.95ZM723.23-21.4L720.53-21.4 719.43-35.25 724.23-35.25 723.23-21.4ZM733.23-21.4L730.53-21.4 729.43-35.25 734.23-35.25 733.23-21.4Z" opacity="1" transform="matrix(1,0,0,1,0,0)" fill="#000000" class="slogan-text-1" data-fill-palette-color="secondary" id="text-1"></path></svg></g></svg></g></svg></g></svg></g></svg></g></svg></g></svg></g></svg></g><defs></defs></svg><rect width="320" height="360" fill="none" stroke="none" visibility="hidden"></rect></g></svg></g></svg>